<svg width="25" height="24" viewBox="0 0 25 24" fill="none" xmlns="http://www.w3.org/2000/svg">
<g clip-path="url(#clip0_589_6874)">
<path fill-rule="evenodd" clip-rule="evenodd" d="M11.3103 2.32422C10.6765 2.32422 10.0431 2.32422 9.40953 2.32422C4.38441 3.1275 1.42593 6.26814 0.769531 11.2522C0.769531 11.713 0.769531 12.1738 0.769531 12.6346C1.46817 18.2741 5.61825 21.7695 11.1951 21.4474C11.0315 21.5912 10.6218 21.4885 10.5039 21.6778C16.4727 21.2722 19.5639 17.9893 20.2383 12.289C20.2383 12.0586 20.2383 11.8282 20.2383 11.5978C19.6724 6.09654 16.4929 3.20886 11.3103 2.32422ZM16.8975 17.0698C15.5507 18.8278 13.7281 20.0811 11.0802 20.2954C7.34241 20.5978 4.07289 18.1798 2.72817 15.169C1.87497 13.2589 1.97289 10.3664 2.95857 8.08422C3.63441 7.12542 4.27881 6.24678 5.14737 5.49222C6.02673 4.7283 7.08033 4.30974 8.20017 3.76422C8.53761 3.88206 9.27561 3.60582 9.75537 3.53382C9.95385 3.50406 10.5359 3.47502 11.0804 3.47622C11.0605 3.72534 10.5721 3.50574 10.4466 3.64902C12.7463 3.73662 14.7731 4.6923 16.149 6.06822C17.5395 7.45854 18.6781 9.3735 18.6836 11.8282C18.6877 13.9069 18.0078 15.6209 16.8975 17.0698Z" fill="#88ADBB"/>
<path fill-rule="evenodd" clip-rule="evenodd" d="M14.6275 8.19645C14.3922 8.31272 14.0453 8.82556 13.803 9.13077C12.8758 10.2987 11.9025 11.1789 10.8758 12.279C10.1354 13.0724 9.44304 13.8612 8.77303 14.4929C8.40213 14.2582 8.04568 13.7513 7.54277 13.2794C6.76702 12.5518 5.51428 11.5984 5.57118 13.2441C6.44966 13.9234 7.07151 14.798 8.0056 15.4352C7.95938 15.442 7.89268 15.4213 7.88373 15.4765C8.23286 15.7485 8.4584 15.8373 8.66233 16.1636C8.66666 16.1317 8.71749 16.1052 8.7194 16.1713C8.90431 16.3917 8.9693 15.9364 9.07737 16.1037C9.03983 16.134 8.90692 16.3564 9.0386 16.3891C10.6424 14.7209 12.4542 12.732 14.0686 11.027C14.5728 10.4943 15.272 9.95279 15.6294 9.37888C16.0696 8.6721 15.5694 7.73124 14.6275 8.19645Z" fill="#88ADBB"/>
</g>
<defs>
<clipPath id="clip0_589_6874">
<rect width="24" height="24" fill="white" transform="translate(0.769531)"/>
</clipPath>
</defs>
</svg>
