<svg width="20" height="20" viewBox="0 0 20 20" fill="none" xmlns="http://www.w3.org/2000/svg">
<path fill-rule="evenodd" clip-rule="evenodd" d="M3.48443 3.84375H16.5175C16.8178 3.84375 17.058 3.90381 17.3583 4.02393C17.3583 4.56447 17.058 5.04495 16.6376 5.46537L11.7127 9.27916C10.8118 10.0599 9.25019 10.12 8.28923 9.27916L3.36431 5.40531C2.94389 5.04495 2.70365 4.56447 2.70365 4.02393C2.70365 3.96387 3.42437 3.84375 3.48443 3.84375ZM18.2592 4.68459C18.5595 5.04495 18.7397 5.52543 18.7397 6.06597V13.9939C18.7397 15.1951 17.7187 16.1561 16.5175 16.1561H3.48443C2.28323 16.1561 1.32227 15.1951 1.32227 13.9939V6.06597C1.32227 5.52543 1.50245 5.04495 1.80275 4.68459C1.92287 5.28519 2.22317 5.76567 2.70365 6.18609L7.62857 10.0599C8.94989 11.2011 11.1121 11.141 12.3733 9.99988L17.2982 6.18609C17.7787 5.82573 18.079 5.28519 18.2592 4.68459Z" fill="#F7F8F8"/>
</svg>
