<svg width="32" height="32" viewBox="0 0 32 32" fill="none" xmlns="http://www.w3.org/2000/svg">
<path d="M19.5 4.25H12.5C10.3126 4.25214 8.21545 5.12203 6.66874 6.66874C5.12203 8.21545 4.25214 10.3126 4.25 12.5V19.5C4.25216 21.6874 5.12204 23.7845 6.66875 25.3312C8.21546 26.878 10.3126 27.7478 12.5 27.75H19.5C21.6874 27.7478 23.7845 26.878 25.3312 25.3312C26.878 23.7845 27.7478 21.6874 27.75 19.5V12.5C27.7479 10.3126 26.878 8.21545 25.3313 6.66874C23.7846 5.12203 21.6874 4.25214 19.5 4.25ZM16 21.47C14.9181 21.47 13.8606 21.1492 12.961 20.5481C12.0615 19.9471 11.3604 19.0928 10.9464 18.0933C10.5324 17.0938 10.424 15.9939 10.6351 14.9329C10.8462 13.8718 11.3671 12.8971 12.1321 12.1321C12.8971 11.3671 13.8718 10.8462 14.9329 10.6351C15.9939 10.424 17.0938 10.5324 18.0933 10.9464C19.0928 11.3604 19.9471 12.0615 20.5481 12.961C21.1492 13.8606 21.47 14.9181 21.47 16C21.468 17.4501 20.891 18.8403 19.8656 19.8656C18.8403 20.891 17.4501 21.468 16 21.47ZM23.015 10.785C22.9696 10.8319 22.9193 10.8738 22.865 10.91C22.8093 10.9449 22.7508 10.975 22.69 11C22.6308 11.0258 22.5687 11.0443 22.505 11.055C22.441 11.0691 22.3755 11.0758 22.31 11.075C22.1782 11.0733 22.0478 11.0479 21.925 11C21.8658 10.975 21.809 10.9449 21.755 10.91C21.7 10.8726 21.6482 10.8308 21.6 10.785C21.4138 10.5956 21.3097 10.3406 21.31 10.075C21.3092 10.0095 21.3159 9.94403 21.33 9.88C21.3407 9.81631 21.3592 9.75418 21.385 9.695C21.41 9.63421 21.4401 9.57567 21.475 9.52C21.5127 9.46679 21.5545 9.41663 21.6 9.37C21.6482 9.32415 21.7 9.28234 21.755 9.245C21.8089 9.21008 21.8658 9.17996 21.925 9.155C21.9866 9.12977 22.0501 9.1097 22.115 9.095C22.2761 9.0636 22.4424 9.07226 22.5993 9.12021C22.7562 9.16816 22.899 9.25394 23.015 9.37C23.062 9.41533 23.1039 9.46563 23.14 9.52C23.1765 9.57556 23.2083 9.6341 23.235 9.695C23.2586 9.75498 23.277 9.81688 23.29 9.88C23.3016 9.9444 23.3083 10.0096 23.31 10.075C23.3104 10.207 23.2845 10.3377 23.2338 10.4596C23.1832 10.5815 23.1088 10.6921 23.015 10.785ZM16 12.03C15.2148 12.03 14.4472 12.2628 13.7944 12.6991C13.1415 13.1353 12.6327 13.7553 12.3322 14.4807C12.0317 15.2062 11.9531 16.0044 12.1063 16.7745C12.2595 17.5446 12.6376 18.252 13.1928 18.8072C13.748 19.3624 14.4554 19.7405 15.2255 19.8937C15.9956 20.0469 16.7938 19.9683 17.5193 19.6678C18.2447 19.3673 18.8647 18.8585 19.3009 18.2056C19.7372 17.5528 19.97 16.7852 19.97 16C19.9691 14.9474 19.5506 13.9381 18.8063 13.1937C18.0619 12.4494 17.0526 12.0309 16 12.03ZM15.515 14.615C15.2276 14.7154 14.9785 14.9026 14.8021 15.1507C14.6256 15.3988 14.5306 15.6956 14.53 16C14.53 16.1989 14.451 16.3897 14.3103 16.5303C14.1697 16.671 13.9789 16.75 13.78 16.75C13.5811 16.75 13.3903 16.671 13.2497 16.5303C13.109 16.3897 13.03 16.1989 13.03 16C13.0306 15.3846 13.2224 14.7846 13.5789 14.283C13.9354 13.7813 14.439 13.4029 15.02 13.2C15.2074 13.1355 15.4127 13.1477 15.591 13.2342C15.7694 13.3206 15.9062 13.4741 15.9716 13.6612C16.0371 13.8482 16.0258 14.0536 15.9402 14.2323C15.8546 14.4111 15.7017 14.5487 15.515 14.615Z" fill="#F7F8F8"/>
</svg>
